<?xml version="1.0" encoding="utf-8"?>
<!-- Generator: Adobe Illustrator 23.0.2, SVG Export Plug-In . SVG Version: 6.00 Build 0)  -->
<svg version="1.2" baseProfile="tiny" id="Layer_1" xmlns="http://www.w3.org/2000/svg" xmlns:xlink="http://www.w3.org/1999/xlink"
	 x="0px" y="0px" viewBox="0 0 300 205" xml:space="preserve">
<g>
	<path fill="#050505" d="M263,145c0-4.5,1.1-8.4,3.2-11.7c2.2-3.3,4.9-5.7,8.1-7.3c3.3-1.5,6.8-2.3,10.5-2.3c4.6,0,8.7,0.9,12.4,2.8v4.9
		c-3.2-2-7.1-3-11.7-3c-2.2,0-4.4,0.3-6.4,1c-2,0.6-3.9,1.6-5.6,2.9c-1.7,1.3-3.1,3-4.1,5.2c-1,2.2-1.5,4.7-1.5,7.5
		c0,3,0.5,5.6,1.5,7.8c1,2.2,2.4,3.9,4.1,5.2c1.7,1.2,3.6,2.1,5.6,2.7c2,0.6,4.2,0.9,6.4,0.9c2.9,0,5.5-0.5,7.6-1.5v-16.4h4.9v19.8
		c-4,1.8-8.3,2.8-12.9,2.8c-2.9,0-5.7-0.4-8.3-1.2c-2.6-0.8-5-2-7.1-3.6c-2.1-1.6-3.8-3.9-5.1-6.7C263.6,152,263,148.7,263,145
		 M223.6,165.6h-4.9v-41.2h4.6l24.8,32.9v-3.5v-29.4h4.9v41.2h-4.6l-24.8-33v3.5V165.6z M201,124.4h4.9v41.2H201V124.4z
		 M163.2,129.1v15.5h11.4c2.9,0,5.3-0.6,7.3-1.8c1.9-1.2,2.9-3.2,2.9-6c0-2.8-1-4.8-2.9-6c-1.9-1.2-4.4-1.8-7.3-1.8H163.2z
		 M163.2,165.6h-4.9v-41.2h16.1c2.7,0,5.2,0.4,7.4,1.1c2.2,0.7,4.1,2.1,5.7,4c1.6,1.9,2.4,4.4,2.4,7.4c0,3.5-1,6.3-3.1,8.2
		c-2,2-4.7,3.2-7.9,3.8l14,16.7h-6.2l-13.5-16.2h-9.9V165.6z M119.9,124.4h27.8v4.7h-22.8v13.4h21.1v4.7h-21.1v13.7H148v4.7h-28.1
		V124.4z M77.8,124.4h33.9v4.7H97.3v36.5h-4.9v-36.5H77.8V124.4z M58.1,131l-8.5,20h18.3l-8.5-20c-0.1-0.2-0.3-0.7-0.6-1.6
		C58.4,130.3,58.2,130.9,58.1,131z M43.4,165.6h-5.4l18-41.2h5.5l17.9,41.2h-5.3l-4.2-9.9H47.7L43.4,165.6z M0,145.3
		c0-4.6,1.1-8.5,3.2-11.9c2.2-3.4,4.8-5.8,8.1-7.4s6.7-2.4,10.4-2.4c4.2,0,8.1,0.9,11.6,2.8v4.9c-3-2-6.6-3-10.8-3
		c-4.7,0-8.8,1.4-12.2,4.3c-3.5,2.9-5.2,7.1-5.2,12.6c0,3.5,0.9,6.5,2.7,9.1c1.8,2.6,4,4.4,6.6,5.5c2.6,1.1,5.4,1.7,8.4,1.7
		c4.4,0,8.1-1,10.9-3v4.9c-3.6,1.8-7.6,2.8-12,2.8c-2.6,0-5.2-0.5-7.8-1.4c-2.6-0.9-4.9-2.2-6.9-3.9c-2.1-1.7-3.7-3.9-5-6.7
		C0.6,151.6,0,148.6,0,145.3z"/>
	<path fill="#050505" d="M236.4,188.8c0.1-0.5,0-1.1-0.1-1.6c-0.1-0.6-0.4-1.1-0.8-1.7c-0.4-0.6-1-1-1.8-1.4c-0.8-0.4-1.7-0.6-2.8-0.6
		c-1.6,0-3,0.5-4.2,1.4c-1.2,0.9-1.8,2.2-1.9,3.9H236.4z M221.9,190.1c0-2.9,0.9-5.2,2.7-6.9c1.8-1.7,3.9-2.5,6.2-2.5
		c2.2,0,4,0.5,5.4,1.6c1.4,1.1,2.4,2.4,2.8,4c0.4,1.6,0.5,3.3,0.1,5h-14.2c0.2,1.8,1,3.1,2.3,4c1.4,0.9,3.1,1.3,5,1.3
		c2.2,0,4.1-0.5,5.9-1.4v2.9c-1.7,0.9-3.8,1.3-6.3,1.3c-2.8,0-5.2-0.8-7.1-2.4C222.8,195.4,221.9,193.1,221.9,190.1z M203.4,183.9
		c-0.1,2-0.3,3.7-0.4,5.1c-0.2,1.5-0.4,2.9-0.7,4.2c-0.3,1.4-0.7,2.4-1.2,3.3c-0.5,0.8-1,1.5-1.7,2c-0.7,0.5-1.5,0.7-2.4,0.7
		c-0.7,0-1.4-0.1-2.2-0.4v-2.3c0.4,0.1,0.8,0.2,1.2,0.2c1.5,0,2.6-1.3,3.3-3.9c0.7-2.6,1.1-6.5,1.3-11.7h13.1V199h-3v-15.1H203.4z
		 M173.8,199h-2.5v-17.8h3v13.1l10.9-13.1h2.5V199h-3v-13.1L173.8,199z M157.4,199h-3v-15.1h-6.6v-2.8h16.1v2.8h-6.5V199z
		 M126.3,190.1c0-1.6,0.3-3,0.9-4.2c0.6-1.2,1.3-2.2,2.2-3c0.9-0.7,2-1.3,3.1-1.7c1.1-0.4,2.3-0.6,3.5-0.6c2.2,0,4,0.5,5.5,1.4v2.9
		c-1.4-1.1-3.1-1.6-5.1-1.6c-1.9,0-3.6,0.6-5,1.7c-1.4,1.1-2.1,2.8-2.1,4.9c0,2.2,0.7,3.8,2.1,4.9c1.4,1.1,3,1.7,4.9,1.7
		c2,0,3.8-0.5,5.4-1.4v3c-1.7,0.8-3.6,1.2-5.8,1.2c-2.6,0-4.8-0.8-6.7-2.4C127.2,195.4,126.3,193.1,126.3,190.1z M86.2,193.9
		c0,1,0.4,1.7,1.1,2.2c0.8,0.5,1.7,0.8,2.7,0.8c2.5,0,4.5-0.9,6.1-2.6V191c-1.7-0.3-3.2-0.5-4.5-0.5c-1.5,0-2.8,0.3-3.8,0.8
		C86.7,191.8,86.2,192.7,86.2,193.9z M99.1,195.3c0,0.9,0.5,1.4,1.4,1.4c0.4,0,0.9-0.1,1.4-0.3v2.4c-0.7,0.3-1.5,0.4-2.2,0.4
		c-1.7,0-2.8-0.7-3.3-2.2c-1.9,1.6-4.2,2.4-7,2.4c-1.7,0-3.2-0.5-4.4-1.4c-1.2-0.9-1.8-2.3-1.8-4c0-2.1,0.8-3.6,2.4-4.6
		c1.6-1,3.5-1.4,5.7-1.4c1.6,0,3.3,0.2,4.9,0.6v-0.6c0-1.4-0.4-2.4-1.3-3.3c-0.9-0.8-2.1-1.2-3.8-1.2c-2.3,0-4.4,0.4-6.5,1.3v-2.9
		c2.3-0.8,4.6-1.2,6.8-1.2c2.4,0,4.3,0.7,5.7,2s2.1,3.2,2.1,5.6V195.3z M61.9,199h-3v-17.8h3v7.5h10.3v-7.5h3V199h-3v-7.5H61.9V199z
		"/>
	<path fill="#D70000" d="M219.2,29.4c0-6.1-2.1-10.5-6.3-13.1c-4.2-2.6-10.4-3.9-18.6-3.9h-30.5v33.9h34c6.2,0,11.3-1.4,15.3-4.1
		C217.2,39.5,219.2,35.2,219.2,29.4 M223.6,77.6c0-12.5-8.7-18.8-26-18.8h-33.7v37.6H194c3.3,0,6.1-0.1,8.4-0.2
		c2.3-0.2,4.9-0.6,7.8-1.2c2.9-0.7,5.2-1.7,7-3c1.8-1.3,3.3-3.2,4.5-5.6C222.9,83.9,223.6,81,223.6,77.6z M165.1,0h30.3
		c11.4,0,20.4,2.4,27.1,7.1c6.6,4.7,9.9,11.5,9.9,20.4c0,6.4-1.7,11.7-5.1,15.8c-3.4,4.1-7.5,6.9-12.3,8.3
		c5.8,1.6,10.9,4.5,15.2,8.9c4.4,4.4,6.5,10.5,6.5,18.4c0,4.8-0.9,9-2.7,12.6c-1.8,3.6-4.1,6.5-6.8,8.6c-2.7,2.1-6,3.9-9.6,5.2
		c-3.7,1.3-7.2,2.3-10.6,2.7c-3.4,0.5-6.8,0.7-10.3,0.7h-45.9V34.6L165.1,0z M150.8,0h0.3l-0.3,0.8V0z"/>
	<polygon fill="#050505" points="120.1,108.8 106.5,108.8 61.4,0 75.4,0 113.2,94.2 151.1,0 165.1,0 	"/>
</g>
</svg>
