<svg id="Layer_1" data-name="Layer 1" xmlns="http://www.w3.org/2000/svg" xmlns:xlink="http://www.w3.org/1999/xlink" viewBox="0 0 49.54 47.6"><defs><style>.cls-1{fill:none;}.cls-2{clip-path:url(#clip-path);}.cls-3{fill:url(#linear-gradient);}.cls-4{fill:#fff;}</style><clipPath id="clip-path"><path class="cls-1" d="M24.94,46.6A24.14,24.14,0,0,1,13,43.47L1,46.55l4.41-9.91A22,22,0,0,1,1.34,23.8C1.34,11.23,11.93,1,24.94,1s23.6,10.23,23.6,22.8S38,46.6,24.94,46.6Z"/></clipPath><linearGradient id="linear-gradient" x1="24.77" y1="46.62" x2="24.77" y2="1.4" gradientTransform="matrix(1, 0, 0, -1, 0, 49.6)" gradientUnits="userSpaceOnUse"><stop offset="0" stop-color="#1df47c"/><stop offset="0.31" stop-color="#12df63"/><stop offset="0.75" stop-color="#05c443"/><stop offset="1" stop-color="#00ba37"/></linearGradient></defs><title>whatsapp</title><g id="_23-whatsapp" data-name=" 23-whatsapp"><g class="cls-2"><polygon class="cls-3" points="0 47.55 0 0 49.54 0 49.54 47.6 0 47.55"/></g><path class="cls-4" d="M18.76,13.18l2,5.43a.76.76,0,0,1-.1.74,10.51,10.51,0,0,1-1.48,1.71A.79.79,0,0,0,19,22.15c1.23,1.65,4.42,5.65,8.57,7.08a.79.79,0,0,0,.89-.29l1.66-2.21a.79.79,0,0,1,1-.23l5.2,2.6a.79.79,0,0,1,.4,1c-.57,1.62-2.36,5.57-6.19,4.93A20.81,20.81,0,0,1,17.74,27.8c-3.14-3.92-9.34-14,.19-15.14A.8.8,0,0,1,18.76,13.18Z"/></g></svg>