<svg height="480pt" viewBox="0 -32 480.05972 480" width="480pt" xmlns="http://www.w3.org/2000/svg" fill="#ffffff"><path d="m208.058594 32.03125c-97.199219 0-176 78.796875-176 176 0 97.199219 78.800781 176 176 176 97.203125 0 176-78.800781 176-176-.109375-97.15625-78.84375-175.890625-176-176zm0 336c-88.363282 0-160-71.636719-160-160 0-88.367188 71.636718-160 160-160 88.367187 0 160 71.632812 160 160-.101563 88.320312-71.675782 159.898438-160 160zm0 0"/><path d="m448.058594 176.03125h-34.535156c-16.714844-107.359375-113.246094-183.765625-221.570313-175.382812-108.328125 8.382812-191.953125 98.730468-191.953125 207.382812 0 108.648438 83.625 198.996094 191.953125 207.378906 108.324219 8.382813 204.855469-68.023437 221.570313-175.378906h34.535156c17.675781 0 32-14.328125 32-32 0-17.675781-14.324219-32-32-32zm11.304687 43.300781c-2.988281 3.015625-7.058593 4.703125-11.304687 4.699219h-41.519532c-4.054687-.003906-7.472656 3.027344-7.953124 7.054688-12.191407 100.820312-100.789063 174.703124-202.15625 168.597656-101.371094-6.109375-180.453126-90.101563-180.453126-191.652344 0-101.554688 79.082032-185.546875 180.453126-191.652344 101.367187-6.109375 189.964843 67.777344 202.15625 168.59375.480468 4.027344 3.898437 7.0625 7.953124 7.058594h41.519532c6.464844.007812 12.292968 3.90625 14.765625 9.878906 2.472656 5.972656 1.105469 12.847656-3.460938 17.421875zm0 0"/><path d="m202.402344 189.6875c3.125 3.121094 8.1875 3.121094 11.3125 0l45.28125-45.28125c12.488281-12.519531 12.46875-32.792969-.050782-45.285156-12.519531-12.488282-32.796874-12.464844-45.285156.054687l-5.601562 5.597657-5.671875-5.671876c-12.503907-12.5-32.773438-12.496093-45.269531.007813-12.5 12.503906-12.496094 32.773437.007812 45.273437zm-33.964844-79.203125c6.265625-6.261719 16.421875-6.261719 22.6875 0l11.277344 11.28125c3.125 3.125 8.1875 3.125 11.3125 0l11.199218-11.199219c6.367188-6.046875 16.351563-6.066406 22.738282-.039062 6.234375 6.246094 6.234375 16.359375 0 22.605468l-39.59375 39.585938-39.621094-39.625c-6.238281-6.246094-6.238281-16.363281 0-22.609375zm0 0"/><path d="m208.058594 256.03125c48.578125-.058594 87.945312-39.425781 88-88-.003906-6.214844-.648438-12.414062-1.917969-18.496094-.585937-2.832031-2.648437-5.128906-5.40625-6.007812-2.753906-.878906-5.765625-.203125-7.882813 1.765625l-72.792968 67.808593-72.800782-67.808593c-2.113281-1.96875-5.128906-2.644531-7.882812-1.765625s-4.820312 3.175781-5.402344 6.007812c-1.269531 6.082032-1.910156 12.28125-1.914062 18.496094.058594 48.574219 39.421875 87.941406 88 88zm-72-88.136719 66.546875 61.984375c3.070312 2.863282 7.835937 2.863282 10.910156 0l66.542969-61.984375v.136719c0 39.761719-32.234375 72-72 72-39.761719 0-72-32.238281-72-72zm0 0"/><path d="m219.089844 288.519531-11.03125 6.300781-11.03125-6.300781c-26.398438-15.082031-50.164063-34.363281-70.359375-57.089843l-32.632813-36.710938c-2.207031-2.480469-5.714844-3.339844-8.816406-2.160156-3.105469 1.179687-5.15625 4.152344-5.160156 7.472656 0 75.367188 52.632812 128 128 128 75.367187 0 128-52.632812 128-128 0-3.320312-2.054688-6.292969-5.15625-7.472656-3.101563-1.179688-6.613282-.320313-8.820313 2.160156l-32.628906 36.710938c-20.195313 22.726562-43.960937 42.007812-70.363281 57.089843zm98.9375-65.160156c-9.566406 53.222656-52.121094 88.671875-109.96875 88.671875s-100.398438-35.449219-109.96875-88.671875l16.625 18.695313c21.347656 24.035156 46.480468 44.417968 74.402344 60.351562l14.941406 8.566406c2.460937 1.40625 5.476562 1.40625 7.9375 0l15.03125-8.542968c27.921875-15.933594 53.050781-36.316407 74.398437-60.351563zm0 0"/></svg>